<?xml version="1.0" standalone="no"?>
<!DOCTYPE svg PUBLIC "-//W3C//DTD SVG 20010904//EN"
 "http://www.w3.org/TR/2001/REC-SVG-20010904/DTD/svg10.dtd">
<svg version="1.0" xmlns="http://www.w3.org/2000/svg"
 width="512.000000pt" height="512.000000pt" viewBox="0 0 512.000000 512.000000"
 preserveAspectRatio="xMidYMid meet">
<metadata>
Created by potrace 1.11, written by Peter Selinger 2001-2013
</metadata>
<g transform="translate(0.000000,512.000000) scale(0.100000,-0.100000)"
fill="#000000" stroke="none">
<path d="M0 2560 l0 -2560 2560 0 2560 0 0 2560 0 2560 -2560 0 -2560 0 0
-2560z m866 1909 l62 -11 6 -91 c3 -51 8 -141 11 -200 l6 -109 -23 7 c-13 4
-31 9 -40 11 -22 6 -74 -20 -82 -41 -12 -33 -5 -56 44 -150 44 -84 50 -103 50
-156 0 -91 -43 -159 -130 -205 -28 -15 -57 -19 -152 -19 -64 0 -119 2 -122 5
-2 3 -11 37 -19 75 -9 39 -18 83 -22 99 -8 28 -7 28 26 20 56 -14 106 -10 129
11 18 16 21 27 17 60 -5 35 -18 52 -111 140 -128 121 -156 171 -156 280 0 139
74 230 220 271 57 16 204 17 286 3z m1410 -4 c188 -39 285 -126 314 -281 28
-146 -33 -296 -148 -365 -20 -13 -39 -24 -41 -26 -6 -5 104 -144 148 -187 l41
-40 -121 -58 c-67 -32 -125 -58 -128 -58 -9 0 -103 143 -137 209 l-29 55 -3
-102 -3 -102 -177 2 -177 3 -12 295 c-7 162 -16 371 -22 465 -5 93 -8 172 -5
175 3 2 40 10 82 16 115 18 329 17 418 -1z m-539 -152 c-4 -75 -7 -161 -7
-191 l0 -55 -95 7 -95 6 0 -32 c0 -18 -7 -141 -15 -273 -8 -132 -15 -246 -15
-252 0 -10 -37 -13 -149 -13 l-149 0 -6 73 c-3 39 -8 126 -11 192 -3 66 -8
161 -12 212 l-6 92 -93 -6 -94 -6 0 64 c0 35 -3 121 -7 192 l-6 127 383 0 383
0 -6 -137z m1540 85 c-4 -29 -9 -102 -12 -163 -3 -60 -8 -125 -11 -144 l-5
-33 -57 6 c-31 4 -78 9 -104 12 l-48 6 0 -62 0 -63 106 6 106 5 -6 -27 c-3
-14 -11 -57 -18 -94 l-12 -69 -31 7 c-16 3 -58 9 -92 12 l-63 6 0 -67 0 -67
58 5 c31 3 84 8 118 11 l61 6 -21 -91 -20 -90 -277 0 -276 0 -7 208 c-9 287
-25 617 -32 680 l-5 52 326 0 327 0 -5 -52z m690 0 c-4 -29 -9 -102 -12 -163
-3 -60 -8 -125 -11 -144 l-5 -33 -57 6 c-31 4 -78 9 -104 12 l-48 6 0 -62 0
-63 106 6 106 5 -6 -27 c-3 -14 -11 -57 -18 -94 l-12 -69 -31 7 c-16 3 -58 9
-92 12 l-63 6 0 -67 0 -67 58 5 c31 3 84 8 118 11 l61 6 -21 -91 -20 -90 -277
0 -276 0 -7 208 c-9 287 -25 617 -32 680 l-5 52 326 0 327 0 -5 -52z m800 -85
c-4 -75 -7 -161 -7 -191 l0 -55 -95 7 -95 6 0 -32 c0 -18 -7 -141 -15 -273 -8
-132 -15 -246 -15 -252 0 -10 -37 -13 -149 -13 l-149 0 -6 73 c-3 39 -8 126
-11 192 -3 66 -8 161 -12 212 l-6 92 -93 -6 -94 -6 0 64 c0 35 -3 121 -7 192
l-6 127 383 0 383 0 -6 -137z m-3571 -1344 l62 -11 6 -91 c3 -51 8 -141 11
-200 l6 -109 -23 7 c-13 4 -31 9 -40 11 -22 6 -74 -20 -82 -41 -12 -33 -5 -56
44 -150 45 -85 50 -102 50 -158 0 -76 -26 -126 -88 -174 -53 -40 -98 -53 -188
-53 -130 0 -127 -2 -152 108 -12 52 -20 97 -18 99 2 2 24 -1 49 -8 56 -14 113
1 122 32 17 52 -3 85 -105 179 -126 116 -160 177 -160 284 0 140 74 231 220
272 57 16 204 17 286 3z m558 -86 c-8 -120 -24 -435 -24 -476 l0 -39 69 4 c39
2 72 6 75 8 2 3 -2 111 -10 240 -7 129 -14 256 -14 283 l0 47 200 0 c110 0
200 -3 200 -8 0 -4 -6 -117 -14 -252 -8 -135 -18 -343 -22 -462 l-7 -218 -157
0 -157 0 -7 97 c-4 53 -9 99 -11 101 -2 3 -23 -5 -47 -16 -23 -12 -43 -20 -44
-19 -2 2 -16 32 -33 67 l-30 65 0 -147 -1 -148 -174 0 -174 0 -6 63 c-3 34 -8
143 -11 242 -7 210 -22 507 -31 583 l-5 52 220 0 220 0 -5 -67z m1193 15 c-4
-29 -9 -102 -12 -163 -3 -60 -8 -125 -11 -144 l-5 -33 -57 6 c-31 4 -78 10
-104 13 l-46 5 -4 -62 -3 -62 108 4 108 3 -5 -25 c-3 -14 -11 -56 -18 -93 -12
-66 -13 -68 -38 -63 -14 3 -55 9 -92 12 l-68 7 0 -67 0 -68 78 6 c42 4 95 9
118 12 l41 5 -21 -91 -20 -90 -277 0 -276 0 -7 218 c-8 253 -23 582 -31 665
l-6 57 327 0 326 0 -5 -52z m690 0 c-4 -29 -9 -102 -12 -163 -3 -60 -8 -125
-11 -144 l-5 -33 -57 6 c-31 4 -78 10 -104 13 l-46 5 -4 -62 -3 -62 108 4 108
3 -5 -25 c-3 -14 -11 -56 -18 -93 -12 -66 -13 -68 -38 -63 -14 3 -55 9 -92 12
l-68 7 0 -67 0 -68 78 6 c42 4 95 9 118 12 l41 5 -21 -91 -20 -90 -277 0 -276
0 -7 218 c-8 253 -23 582 -31 665 l-6 57 327 0 326 0 -5 -52z m790 -85 c-4
-75 -7 -161 -7 -191 l0 -54 -95 7 -95 7 0 -29 c0 -15 -7 -136 -15 -268 -8
-132 -15 -248 -15 -257 0 -16 -14 -18 -149 -18 l-149 0 -6 83 c-3 45 -8 136
-11 202 -3 66 -8 157 -12 203 l-6 83 -93 -7 -94 -7 0 64 c0 35 -3 121 -7 192
l-6 127 383 0 383 0 -6 -137z m-1838 -1368 c12 -30 22 -57 21 -60 0 -3 6 -13
15 -21 10 -10 15 -34 15 -69 l0 -53 185 -1 185 -1 0 49 c0 36 10 72 34 125 19
42 38 76 43 76 4 -1 25 -38 45 -83 30 -65 37 -91 34 -124 l-5 -43 35 0 c34 0
34 0 34 -45 0 -43 -1 -45 -29 -45 -16 0 -31 -6 -35 -15 -4 -12 3 -15 32 -17
l37 -1 -37 -4 -38 -4 0 -206 c0 -196 -1 -205 -20 -210 -13 -4 -20 -14 -20 -30
0 -13 4 -22 8 -19 4 2 13 -4 20 -15 12 -18 9 -19 -47 -19 l-59 0 -6 148 c-4
81 -10 192 -14 247 l-7 100 -60 0 -60 0 -5 -255 c-3 -140 -7 -247 -8 -237 -2
18 -32 24 -32 6 0 -6 -16 -9 -37 -7 l-38 3 -11 245 c-7 135 -12 246 -13 247
-1 1 -25 4 -53 6 -29 2 3 2 72 1 117 -3 121 -2 55 7 -38 5 -127 9 -197 7 -113
-3 -126 -1 -112 12 11 12 46 15 157 17 178 2 211 9 215 46 l3 27 -128 2 c-70
1 -142 2 -159 3 l-31 0 13 58 c14 56 13 60 -11 101 -14 24 -25 51 -25 62 -1
13 -6 8 -15 -15 -8 -18 -12 -38 -8 -44 3 -5 2 -7 -4 -4 -15 10 -33 -38 -33
-88 0 -44 0 -45 34 -45 19 0 37 6 40 13 3 6 5 3 3 -8 -2 -15 -11 -21 -35 -23
-30 -3 -32 -5 -20 -20 12 -15 11 -16 -4 -3 -15 11 -19 11 -24 -3 -3 -9 -4 -22
-1 -29 4 -11 -3 -12 -36 -6 -25 4 -44 3 -48 -3 -4 -5 -13 -3 -23 7 -9 10 -14
20 -11 23 3 4 10 0 14 -7 6 -9 11 -10 15 -2 4 6 19 11 34 11 15 0 34 5 42 11
11 8 5 9 -25 5 -55 -8 -88 -7 -97 2 -5 5 -1 9 9 9 10 -1 42 0 71 1 l52 2 0 59
c0 47 7 73 35 130 19 39 39 71 43 71 5 0 19 -25 31 -55z m-516 -35 c25 -54 37
-94 37 -124 l0 -44 53 -5 c28 -3 63 -8 77 -12 19 -5 22 -4 10 4 -19 13 -1 14
20 1 12 -7 12 -10 1 -10 -7 0 -11 -6 -8 -14 4 -11 1 -13 -11 -9 -13 4 -12 2 3
-10 16 -14 17 -18 6 -26 -19 -12 59 -21 83 -9 12 7 16 7 12 0 -10 -17 10 -22
30 -8 10 8 24 12 31 9 7 -3 13 0 13 6 0 6 10 11 23 11 20 0 20 -1 -7 -15 -15
-8 -32 -13 -36 -10 -4 3 -10 -1 -13 -8 -5 -14 39 -21 135 -22 25 0 41 -3 35
-7 -7 -4 -25 -8 -41 -8 l-29 0 6 -87 c4 -49 10 -157 13 -240 7 -152 7 -153 30
-153 23 0 31 20 24 55 -1 6 2 7 6 2 4 -4 9 -23 11 -42 4 -35 3 -35 -35 -35
l-39 0 -6 98 c-4 53 -10 168 -13 255 l-7 157 -58 0 -57 0 -6 -62 c-3 -35 -8
-119 -11 -187 -4 -99 -8 -126 -21 -136 -11 -8 -15 -21 -12 -39 3 -14 1 -29 -4
-32 -4 -3 2 -14 14 -24 l23 -19 -62 -1 -63 0 0 234 c0 129 3 241 6 250 4 11
20 16 48 17 37 1 35 2 -19 10 -39 6 -61 5 -63 -1 -2 -6 -26 -10 -53 -10 l-49
0 0 -257 c0 -192 -3 -254 -11 -246 -7 7 -30 10 -59 6 l-48 -6 -6 189 c-4 104
-10 216 -14 249 l-7 60 -40 6 c-22 3 -32 7 -22 8 21 1 23 31 2 31 -11 0 -15
12 -15 45 l0 45 51 0 c45 0 50 2 44 18 -30 71 -30 70 -7 117 12 25 22 50 22
56 0 11 32 58 40 58 3 1 22 -35 43 -79z m226 33 c23 -27 41 -53 41 -60 0 -7 9
-17 20 -23 16 -8 20 -21 20 -60 l0 -49 -56 -7 c-52 -6 -58 -5 -75 17 -15 20
-19 43 -19 127 0 121 7 127 69 55z m591 -62 c0 -104 -1 -109 -22 -115 -43 -11
-105 -6 -118 9 -17 20 -5 75 20 92 11 8 20 20 20 28 0 15 34 38 43 29 3 -3 13
8 22 25 19 38 11 41 -9 4 -8 -16 -15 -22 -16 -14 0 19 29 51 47 51 10 0 13
-24 13 -109z m-320 -1 c6 -11 8 -20 6 -20 -3 0 -10 9 -16 20 -6 11 -8 20 -6
20 3 0 10 -9 16 -20z m13 -47 c-3 -7 -9 -10 -14 -7 -14 8 -11 21 5 21 8 0 12
-6 9 -14z m47 -113 c0 -5 -2 -10 -4 -10 -3 0 -8 5 -11 10 -3 6 -1 10 4 10 6 0
11 -4 11 -10z m-29 -48 c-13 -2 -27 0 -32 5 -6 6 3 7 23 4 28 -4 29 -6 9 -9z
m206 2 c-3 -3 -12 -4 -19 -1 -8 3 -5 6 6 6 11 1 17 -2 13 -5z m-173 -87 c0 -9
-2 -124 -3 -254 -2 -149 -6 -227 -11 -210 -5 16 -13 34 -18 40 -15 19 -25 95
-26 192 -1 67 -5 93 -16 103 -8 8 -10 11 -3 8 19 -10 26 14 9 33 -31 34 -14
94 29 104 29 7 40 2 39 -16z m-95 -62 c3 -17 2 -17 -13 -3 -19 20 -21 31 -3
26 6 -3 14 -13 16 -23z m17 -37 c4 -7 3 -8 -4 -4 -7 4 -12 2 -12 -4 0 -6 -5
-8 -11 -4 -8 4 -7 9 2 15 18 11 17 11 25 -3z m1 -70 c-3 -8 -6 -5 -6 6 -1 11
2 17 5 13 3 -3 4 -12 1 -19z m0 -130 c-3 -8 -6 -5 -6 6 -1 11 2 17 5 13 3 -3
4 -12 1 -19z m10 -50 c-3 -8 -6 -5 -6 6 -1 11 2 17 5 13 3 -3 4 -12 1 -19z
m13 -38 c0 -5 -4 -10 -10 -10 -5 0 -10 5 -10 10 0 6 5 10 10 10 6 0 10 -4 10
-10z m-586 -221 c49 -38 21 -99 -46 -99 -56 0 -77 89 -25 110 33 13 42 12 71
-11z m216 11 c0 -6 -9 -10 -20 -10 -26 0 -28 -40 -2 -40 15 -1 15 -2 2 -13 -8
-7 -20 -21 -26 -32 -18 -32 -29 -23 -32 28 -3 45 -5 47 -33 47 -16 0 -29 -4
-29 -10 0 -5 9 -10 20 -10 26 0 26 -16 0 -30 -11 -6 -18 -15 -15 -19 2 -5 -1
-14 -9 -20 -20 -17 -34 6 -34 59 0 25 2 48 4 52 7 11 174 8 174 -2z m150 1 c0
-5 -7 -11 -15 -15 -10 -4 -15 -20 -15 -51 0 -33 -4 -45 -14 -45 -11 0 -16 14
-18 48 -2 28 -8 47 -15 48 -23 2 -24 4 -18 14 8 12 95 13 95 1z m50 -16 c0
-18 5 -25 20 -25 15 0 20 7 20 26 0 19 5 25 18 22 24 -4 30 -99 8 -118 -16
-13 -15 -14 -31 35 -8 26 -35 18 -35 -11 0 -19 -5 -25 -17 -22 -32 6 -29 118
2 118 9 0 15 -10 15 -25z m180 16 c0 -5 -12 -14 -27 -19 -27 -10 -28 -11 -5
-17 27 -9 29 -25 2 -32 -24 -6 -16 -23 11 -23 10 0 19 -4 19 -10 0 -5 -18 -10
-40 -10 l-40 0 0 60 0 60 40 0 c22 0 40 -4 40 -9z m258 -3 c-3 -7 -14 -14 -26
-16 -28 -4 -29 -22 -2 -22 11 0 20 -5 20 -11 0 -6 -9 -13 -20 -16 -28 -7 -25
-23 5 -23 14 0 25 -4 25 -10 0 -5 -17 -10 -39 -10 -38 0 -39 1 -45 45 -6 39
-10 45 -32 45 -13 0 -24 -4 -24 -10 0 -5 9 -10 20 -10 13 0 18 -5 14 -15 -4
-8 -12 -15 -20 -15 -8 0 -14 -9 -14 -21 0 -13 -5 -19 -16 -17 -13 2 -17 16
-18 61 l-1 57 88 0 c67 0 88 -3 85 -12z m71 -14 l20 -26 7 27 c10 42 29 23 32
-33 4 -66 -19 -81 -54 -37 l-22 28 -4 -27 c-6 -51 -23 -31 -26 32 -3 70 11 82
47 36z m172 16 c31 -17 23 -33 -12 -26 -30 6 -59 -6 -59 -25 0 -4 7 -15 16
-24 15 -14 19 -14 40 -1 26 18 43 4 24 -19 -29 -35 -110 -2 -110 44 0 21 44
61 67 61 8 0 23 -5 34 -10z m129 1 c0 -5 -11 -12 -25 -15 -30 -8 -32 -22 -4
-29 23 -6 17 -27 -7 -27 -8 0 -14 -4 -14 -10 0 -5 12 -10 26 -10 14 0 23 -4
19 -10 -3 -5 -23 -10 -44 -10 l-37 0 0 60 0 60 43 0 c24 0 43 -4 43 -9z"/>
<path d="M2180 3970 l0 -110 28 6 c75 18 102 48 102 111 0 50 -22 80 -68 93
-64 17 -62 20 -62 -100z"/>
<path d="M3031 1053 c-1 -28 3 -54 8 -57 5 -3 6 16 4 42 -7 69 -11 74 -12 15z"/>
<path d="M2794 905 c4 -16 12 -34 17 -40 7 -7 8 0 3 20 -3 17 -11 35 -17 40
-6 7 -7 0 -3 -20z"/>
<path d="M2862 660 c0 -14 2 -19 5 -12 2 6 2 18 0 25 -3 6 -5 1 -5 -13z"/>
<path d="M1970 1089 c0 -15 18 -19 23 -6 3 8 -1 14 -9 14 -8 0 -14 -4 -14 -8z"/>
<path d="M2270 1456 c0 -2 8 -10 18 -17 15 -13 16 -12 3 4 -13 16 -21 21 -21
13z"/>
<path d="M2580 1020 c5 -19 8 -42 5 -51 -3 -10 1 -19 11 -23 14 -6 16 -1 10
36 -4 24 -13 50 -21 58 -13 12 -14 10 -5 -20z"/>
<path d="M1931 456 c-15 -18 -4 -46 18 -46 27 0 42 20 30 42 -12 21 -32 23
-48 4z"/>
</g>
</svg>
